<svg width="48" height="48" viewBox="0 0 48 48" fill="none" xmlns="http://www.w3.org/2000/svg">
<path d="M41.0374 15.8612C40.836 15.143 40.4438 14.4927 39.9024 13.9795C39.3458 13.4506 38.6635 13.0722 37.92 12.8802C35.1375 12.1468 23.9896 12.1468 23.9896 12.1468C19.3421 12.0939 14.6958 12.3264 10.0769 12.8431C9.33339 13.0494 8.65239 13.4362 8.09445 13.9692C7.54624 14.4966 7.14916 15.1471 6.94173 15.8598C6.44344 18.5441 6.20134 21.2698 6.21869 23.9999C6.20091 26.7276 6.44242 29.4524 6.94173 32.1401C7.14472 32.8498 7.54032 33.4973 8.09001 34.0203C8.6397 34.5433 9.32422 34.9211 10.0769 35.1212C12.8965 35.8531 23.9896 35.8531 23.9896 35.8531C28.6429 35.906 33.2951 35.6735 37.92 35.1567C38.6635 34.9646 39.3458 34.5863 39.9024 34.0573C40.4436 33.5443 40.8354 32.8939 41.0359 32.1756C41.5472 29.4923 41.7958 26.7656 41.7782 24.034C41.8167 21.2909 41.5684 18.5513 41.0374 15.8598V15.8612ZM20.4455 29.0731V18.9282L29.7206 24.0014L20.4455 29.0731Z" fill="white"/>
</svg>
