<svg width="48" height="48" viewBox="0 0 48 48" fill="none" xmlns="http://www.w3.org/2000/svg">
<path fill-rule="evenodd" clip-rule="evenodd" d="M16.7057 6.41329C18.5924 6.32643 19.1939 6.30713 23.9999 6.30713C28.8059 6.30713 29.4075 6.32804 31.2925 6.41329C33.1776 6.49853 34.4644 6.79931 35.5903 7.2352C36.7693 7.68073 37.8389 8.37718 38.7235 9.27791C39.6242 10.1609 40.3191 11.2289 40.763 12.4095C41.2005 13.5354 41.4997 14.8222 41.5865 16.704C41.6734 18.594 41.6927 19.1955 41.6927 23.9999C41.6927 28.8059 41.6718 29.4075 41.5865 31.2942C41.5013 33.176 41.2005 34.4628 40.763 35.5887C40.3191 36.7694 39.6231 37.8392 38.7235 38.7235C37.8389 39.6242 36.7693 40.3191 35.5903 40.763C34.4644 41.2005 33.1776 41.4997 31.2958 41.5865C29.4075 41.6734 28.8059 41.6927 23.9999 41.6927C19.1939 41.6927 18.5924 41.6718 16.7057 41.5865C14.8238 41.5013 13.537 41.2005 12.4111 40.763C11.2304 40.319 10.1606 39.623 9.2763 38.7235C8.37619 37.8399 7.67963 36.7707 7.2352 35.5903C6.79931 34.4644 6.50014 33.1776 6.41329 31.2958C6.32643 29.4059 6.30713 28.8043 6.30713 23.9999C6.30713 19.1939 6.32804 18.5924 6.41329 16.7073C6.49853 14.8222 6.79931 13.5354 7.2352 12.4095C7.68029 11.2291 8.37737 10.1598 9.27791 9.2763C10.161 8.37638 11.2297 7.67984 12.4095 7.2352C13.5354 6.79931 14.8238 6.50014 16.7057 6.41329ZM31.1494 9.59799C29.2836 9.51274 28.7239 9.49505 23.9999 9.49505C19.2759 9.49505 18.7162 9.51274 16.8504 9.59799C15.1246 9.6768 14.1885 9.96471 13.5644 10.2076C12.7393 10.5293 12.149 10.9105 11.5297 11.5297C10.9427 12.1008 10.491 12.796 10.2076 13.5644C9.96471 14.1885 9.6768 15.1246 9.59799 16.8504C9.51274 18.7162 9.49505 19.2759 9.49505 23.9999C9.49505 28.7239 9.51274 29.2836 9.59799 31.1494C9.6768 32.8752 9.96471 33.8114 10.2076 34.4354C10.4907 35.2027 10.9426 35.8991 11.5297 36.4701C12.1007 37.0572 12.7972 37.5091 13.5644 37.7922C14.1885 38.0351 15.1246 38.323 16.8504 38.4018C18.7162 38.4871 19.2743 38.5048 23.9999 38.5048C28.7255 38.5048 29.2836 38.4871 31.1494 38.4018C32.8752 38.323 33.8114 38.0351 34.4354 37.7922C35.2606 37.4705 35.8508 37.0893 36.4701 36.4701C37.0572 35.8991 37.5091 35.2027 37.7922 34.4354C38.0351 33.8114 38.323 32.8752 38.4018 31.1494C38.4871 29.2836 38.5048 28.7239 38.5048 23.9999C38.5048 19.2759 38.4871 18.7162 38.4018 16.8504C38.323 15.1246 38.0351 14.1885 37.7922 13.5644C37.4705 12.7393 37.0893 12.149 36.4701 11.5297C35.899 10.9428 35.2038 10.491 34.4354 10.2076C33.8114 9.96471 32.8752 9.6768 31.1494 9.59799ZM21.7401 29.4541C23.0021 29.9795 24.4074 30.0504 25.716 29.6547C27.0245 29.259 28.1551 28.4214 28.9147 27.2847C29.6742 26.1481 30.0155 24.783 29.8804 23.4226C29.7453 22.0623 29.1421 20.791 28.1738 19.826C27.5565 19.2091 26.8102 18.7368 25.9885 18.443C25.1667 18.1492 24.2901 18.0412 23.4217 18.1269C22.5532 18.2126 21.7146 18.4897 20.9661 18.9384C20.2176 19.3871 19.5779 19.9961 19.0931 20.7217C18.6082 21.4473 18.2903 22.2713 18.1621 23.1345C18.034 23.9977 18.0988 24.8786 18.352 25.7137C18.6051 26.5489 19.0403 27.3175 19.6261 27.9642C20.212 28.611 20.9339 29.1198 21.7401 29.4541ZM17.5694 17.5694C18.4139 16.7249 19.4164 16.055 20.5197 15.598C21.6231 15.141 22.8056 14.9058 23.9999 14.9058C25.1942 14.9058 26.3767 15.141 27.4801 15.598C28.5834 16.055 29.586 16.7249 30.4304 17.5694C31.2749 18.4139 31.9448 19.4164 32.4018 20.5197C32.8588 21.6231 33.094 22.8056 33.094 23.9999C33.094 25.1942 32.8588 26.3767 32.4018 27.4801C31.9448 28.5834 31.2749 29.586 30.4304 30.4304C28.7249 32.1359 26.4118 33.094 23.9999 33.094C21.588 33.094 19.2749 32.1359 17.5694 30.4304C15.8639 28.7249 14.9058 26.4118 14.9058 23.9999C14.9058 21.588 15.8639 19.2749 17.5694 17.5694ZM35.111 16.2601C35.3202 16.0627 35.4878 15.8253 35.6036 15.562C35.7195 15.2987 35.7814 15.0148 35.7856 14.7272C35.7898 14.4395 35.7362 14.154 35.6281 13.8874C35.5199 13.6208 35.3594 13.3786 35.1559 13.1752C34.9525 12.9718 34.7104 12.8112 34.4438 12.7031C34.1772 12.5949 33.8916 12.5414 33.604 12.5456C33.3163 12.5498 33.0324 12.6116 32.7691 12.7275C32.5058 12.8434 32.2684 13.0109 32.071 13.2202C31.6871 13.6272 31.4769 14.1677 31.4851 14.7272C31.4932 15.2866 31.7191 15.8208 32.1147 16.2164C32.5103 16.6121 33.0445 16.8379 33.604 16.8461C34.1634 16.8542 34.704 16.644 35.111 16.2601Z" fill="white"/>
</svg>
